<svg width="630" height="1365" viewBox="0 0 630 1365" xmlns="http://www.w3.org/2000/svg" font-family="'Helvetica Neue',Arial,'Hiragino Sans',sans-serif">
  <defs>
    <linearGradient id="bg" x1="0" y1="0" x2="0" y2="1">
      <stop offset="0%" stop-color="#1a0f0a"/>
      <stop offset="100%" stop-color="#11141a"/>
    </linearGradient>
    <linearGradient id="frame" x1="0" y1="0" x2="0" y2="1">
      <stop offset="0%" stop-color="#2e3550"/>
      <stop offset="100%" stop-color="#1a1f2e"/>
    </linearGradient>
    <linearGradient id="btn" x1="0" y1="0" x2="1" y2="0">
      <stop offset="0%" stop-color="#3b82f6"/>
      <stop offset="100%" stop-color="#1d4ed8"/>
    </linearGradient>
    <radialGradient id="glow1" cx="60%" cy="35%" r="55%">
      <stop offset="0%" stop-color="#f59e0b" stop-opacity="0.12"/>
      <stop offset="100%" stop-color="#f59e0b" stop-opacity="0"/>
    </radialGradient>
    <radialGradient id="glow2" cx="30%" cy="75%" r="40%">
      <stop offset="0%" stop-color="#22c55e" stop-opacity="0.08"/>
      <stop offset="100%" stop-color="#22c55e" stop-opacity="0"/>
    </radialGradient>
    <filter id="sh">
      <feDropShadow dx="0" dy="24" stdDeviation="28" flood-color="#000" flood-opacity="0.7"/>
    </filter>
    <clipPath id="sc">
      <rect x="128" y="548" width="374" height="744" rx="36"/>
    </clipPath>
  </defs>

  <rect width="630" height="1365" fill="url(#bg)"/>
  <ellipse cx="400" cy="320" rx="300" ry="250" fill="url(#glow1)"/>
  <ellipse cx="200" cy="900" rx="250" ry="200" fill="url(#glow2)"/>

  <!-- Headline -->
  <text x="315" y="110" text-anchor="middle" fill="#6b7280" font-size="13" letter-spacing="3" font-weight="500">HISTORY</text>
  <text x="315" y="175" text-anchor="middle" fill="#e8eaf0" font-size="52" font-weight="800" letter-spacing="-2">月ごとのコストを、</text>
  <text x="315" y="248" text-anchor="middle" fill="#f59e0b" font-size="52" font-weight="800" letter-spacing="-2">一目で把握。</text>
  <text x="315" y="308" text-anchor="middle" fill="#6b7280" font-size="18">月別集計と給油履歴を一覧表示</text>

  <!-- Phone frame -->
  <rect x="100" y="348" width="430" height="920" rx="58" fill="url(#frame)" stroke="#3a4060" stroke-width="1.5" filter="url(#sh)"/>
  <rect x="115" y="362" width="400" height="892" rx="46" fill="#11141a"/>
  <rect x="250" y="376" width="130" height="26" rx="13" fill="#000"/>
  <rect x="96" y="490" width="5" height="55" rx="2.5" fill="#252a38"/>
  <rect x="96" y="558" width="5" height="55" rx="2.5" fill="#252a38"/>
  <rect x="96" y="448" width="5" height="32" rx="2.5" fill="#252a38"/>
  <rect x="529" y="510" width="5" height="72" rx="2.5" fill="#252a38"/>

  <g clip-path="url(#sc)">
    <rect x="128" y="548" width="374" height="744" fill="#11141a"/>

    <!-- Status bar -->
    <text x="148" y="574" fill="#9ca3af" font-size="12" font-weight="600">9:41</text>
    <rect x="456" y="565" width="26" height="13" rx="3" fill="none" stroke="#9ca3af" stroke-width="1.2"/>
    <rect x="457.5" y="566.5" width="18" height="10" rx="1.5" fill="#9ca3af"/>
    <rect x="482" y="569" width="3" height="6" rx="1" fill="#9ca3af"/>
    <rect x="432" y="569" width="3" height="9" rx="1" fill="#9ca3af"/>
    <rect x="437" y="566" width="3" height="12" rx="1" fill="#9ca3af"/>
    <rect x="442" y="563" width="3" height="15" rx="1" fill="#9ca3af"/>
    <rect x="447" y="560" width="3" height="18" rx="1" fill="#9ca3af"/>

    <!-- Header -->
    <text x="148" y="612" fill="#e8eaf0" font-size="19" font-weight="700">⛽ 燃費トラッカー</text>
    <text x="148" y="628" fill="#6b7280" font-size="10" letter-spacing="1.5">MY FUEL LOG</text>
    <text x="488" y="616" text-anchor="end" fill="#3b82f6" font-size="26" font-weight="800">12</text>
    <text x="488" y="630" text-anchor="end" fill="#6b7280" font-size="10">給油回数</text>

    <!-- ── Month: 2026年5月 ── -->
    <rect x="140" y="644" width="350" height="22" rx="6" fill="rgba(245,158,11,0.08)"/>
    <text x="152" y="659" fill="#f59e0b" font-size="11" font-weight="700">2026年5月</text>
    <text x="488" y="659" text-anchor="end" fill="#6b7280" font-size="10">1回 · ¥5,800 · 35.5L</text>

    <!-- History item 1 (latest) -->
    <rect x="140" y="670" width="350" height="70" rx="12" fill="#0d1017" stroke="#252a38" stroke-width="0.8"/>
    <text x="152" y="688" fill="#e8eaf0" font-size="13" font-weight="600">2026/05/28(木)</text>
    <rect x="268" y="677" width="34" height="16" rx="4" fill="rgba(59,130,246,0.15)"/>
    <text x="285" y="688" text-anchor="middle" fill="#3b82f6" font-size="9" font-weight="700">最新</text>
    <text x="152" y="708" fill="#6b7280" font-size="11">Odo 15,420 km</text>
    <text x="488" y="708" text-anchor="end" fill="#6b7280" font-size="11">35.5L · ¥5,800</text>
    <line x1="152" y1="717" x2="488" y2="717" stroke="#252a38" stroke-width="0.8"/>
    <text x="152" y="731" fill="#6b7280" font-size="11">実燃費</text>
    <text x="488" y="731" text-anchor="end" font-size="12" font-weight="700"><tspan fill="#3b82f6">11.8 km/L</tspan><tspan fill="#6b7280" font-weight="400"> · </tspan><tspan fill="#f59e0b">14.0 円/km</tspan></text>

    <!-- ── Month: 2026年4月 ── -->
    <rect x="140" y="750" width="350" height="22" rx="6" fill="rgba(245,158,11,0.08)"/>
    <text x="152" y="765" fill="#f59e0b" font-size="11" font-weight="700">2026年4月</text>
    <text x="488" y="765" text-anchor="end" fill="#6b7280" font-size="10">2回 · ¥13,200 · 80.0L</text>

    <!-- History item 2 -->
    <rect x="140" y="776" width="350" height="70" rx="12" fill="#0d1017" stroke="#252a38" stroke-width="0.8"/>
    <text x="152" y="794" fill="#e8eaf0" font-size="13" font-weight="600">2026/04/15(火)</text>
    <text x="152" y="814" fill="#6b7280" font-size="11">Odo 15,000 km</text>
    <text x="488" y="814" text-anchor="end" fill="#6b7280" font-size="11">40.5L · ¥6,800</text>
    <line x1="152" y1="823" x2="488" y2="823" stroke="#252a38" stroke-width="0.8"/>
    <text x="152" y="837" fill="#6b7280" font-size="11">実燃費</text>
    <text x="488" y="837" text-anchor="end" font-size="12" font-weight="700"><tspan fill="#3b82f6">13.1 km/L</tspan><tspan fill="#6b7280" font-weight="400"> · </tspan><tspan fill="#f59e0b">12.5 円/km</tspan></text>

    <!-- History item 3 -->
    <rect x="140" y="852" width="350" height="70" rx="12" fill="#0d1017" stroke="#252a38" stroke-width="0.8"/>
    <text x="152" y="870" fill="#e8eaf0" font-size="13" font-weight="600">2026/04/02(木)</text>
    <text x="152" y="890" fill="#6b7280" font-size="11">Odo 14,470 km</text>
    <text x="488" y="890" text-anchor="end" fill="#6b7280" font-size="11">39.5L · ¥6,400</text>
    <line x1="152" y1="899" x2="488" y2="899" stroke="#252a38" stroke-width="0.8"/>
    <text x="152" y="913" fill="#6b7280" font-size="11">実燃費</text>
    <text x="488" y="913" text-anchor="end" font-size="12" font-weight="700"><tspan fill="#3b82f6">12.4 km/L</tspan><tspan fill="#6b7280" font-weight="400"> · </tspan><tspan fill="#f59e0b">13.5 円/km</tspan></text>

    <!-- ── Month: 2026年3月 ── -->
    <rect x="140" y="932" width="350" height="22" rx="6" fill="rgba(245,158,11,0.08)"/>
    <text x="152" y="947" fill="#f59e0b" font-size="11" font-weight="700">2026年3月</text>
    <text x="488" y="947" text-anchor="end" fill="#6b7280" font-size="10">2回 · ¥12,100 · 74.0L</text>

    <!-- History item 4 -->
    <rect x="140" y="958" width="350" height="70" rx="12" fill="#0d1017" stroke="#252a38" stroke-width="0.8"/>
    <text x="152" y="976" fill="#e8eaf0" font-size="13" font-weight="600">2026/03/20(金)</text>
    <text x="152" y="996" fill="#6b7280" font-size="11">Odo 13,980 km</text>
    <text x="488" y="996" text-anchor="end" fill="#6b7280" font-size="11">38.0L · ¥6,200</text>
    <line x1="152" y1="1005" x2="488" y2="1005" stroke="#252a38" stroke-width="0.8"/>
    <text x="152" y="1019" fill="#6b7280" font-size="11">実燃費</text>
    <text x="488" y="1019" text-anchor="end" font-size="12" font-weight="700"><tspan fill="#3b82f6">12.4 km/L</tspan><tspan fill="#6b7280" font-weight="400"> · </tspan><tspan fill="#f59e0b">13.4 円/km</tspan></text>

    <!-- History item 5 -->
    <rect x="140" y="1034" width="350" height="70" rx="12" fill="#0d1017" stroke="#252a38" stroke-width="0.8"/>
    <text x="152" y="1052" fill="#e8eaf0" font-size="13" font-weight="600">2026/03/05(木)</text>
    <text x="152" y="1072" fill="#6b7280" font-size="11">Odo 13,510 km</text>
    <text x="488" y="1072" text-anchor="end" fill="#6b7280" font-size="11">36.0L · ¥5,900</text>
    <line x1="152" y1="1081" x2="488" y2="1081" stroke="#252a38" stroke-width="0.8"/>
    <text x="152" y="1095" fill="#6b7280" font-size="11">実燃費</text>
    <text x="488" y="1095" text-anchor="end" font-size="12" font-weight="700"><tspan fill="#3b82f6">11.9 km/L</tspan><tspan fill="#6b7280" font-weight="400"> · </tspan><tspan fill="#f59e0b">13.7 円/km</tspan></text>

    <!-- Fade out hint at bottom of list -->
    <rect x="128" y="1108" width="374" height="130" fill="url(#fadeOut)"/>

    <!-- Tab bar -->
    <rect x="128" y="1248" width="374" height="44" fill="rgba(17,20,26,0.96)" stroke="#252a38" stroke-width="0.8"/>
    <text x="210" y="1264" text-anchor="middle" fill="#3b82f6" font-size="16">⌂</text>
    <text x="210" y="1278" text-anchor="middle" fill="#3b82f6" font-size="9" font-weight="600">ホーム</text>
    <rect x="204" y="1284" width="12" height="2" rx="1" fill="#3b82f6"/>
    <text x="315" y="1264" text-anchor="middle" fill="#6b7280" font-size="15">⌇</text>
    <text x="315" y="1278" text-anchor="middle" fill="#6b7280" font-size="9">グラフ</text>
    <text x="420" y="1264" text-anchor="middle" fill="#6b7280" font-size="15">⚙</text>
    <text x="420" y="1278" text-anchor="middle" fill="#6b7280" font-size="9">設定</text>
    <rect x="260" y="1284" width="110" height="4" rx="2" fill="#3a4060"/>
  </g>

  <text x="315" y="1318" text-anchor="middle" fill="#374151" font-size="13" font-weight="500">⛽ 燃費トラッカー</text>
  <text x="315" y="1343" text-anchor="middle" fill="#1f2937" font-size="12">hajihajitsubo.github.io/fuel-tracker</text>
</svg>
